# xmcd
#
# Track frame offsets: 
#        150
#        14870
#        32757
#        49224
#        68443
#        84497
#        97452
#        116003
#        132954
#        149808
#        168819
#
# Disc length: 2801 seconds
#
# Revision: 3
# Processed by: cddbd v1.5.2PL0 Copyright (c) Steve Scherf et al.
# Submitted via: ExactAudioCopy v1.1
#
DISCID=a10aef0b
DTITLE=War Stories - War Stories
DYEAR=2009
DGENRE=Power Ballad
TTITLE0=T.V
TTITLE1=Lion
TTITLE2=Take My Everything
TTITLE3=What Does God See
TTITLE4=Look to the Stars
TTITLE5=Rage
TTITLE6=Because I Love You
TTITLE7=New Lover's Voice
TTITLE8=Insanity
TTITLE9=Cold Rain
TTITLE10=Without Love
EXTD=YEAR: 2009
EXTT0=
EXTT1=
EXTT2=
EXTT3=
EXTT4=
EXTT5=
EXTT6=
EXTT7=
EXTT8=
EXTT9=
EXTT10=
PLAYORDER=
